<?xml version="1.0" encoding="UTF-8"?>
<svg xmlns="http://www.w3.org/2000/svg" width="40" height="40" viewBox="0 0 40 40" fill="none">
  <path d="M32.1964 20.0978L26.0999 23.4856V30.3366L32.1964 26.8735V20.0978Z" fill="url(#paint0_linear_877_20170)"></path>
  <path d="M19.9258 20.0245L20.002 26.9508L26.0986 30.4139V23.563L20.002 20.0998" fill="url(#paint1_linear_877_20170)"></path>
  <path d="M7.80811 26.8735L13.9047 30.3366V23.4856L7.80811 20.0978V26.8735Z" fill="url(#paint2_linear_877_20170)"></path>
  <path d="M20.0026 20.0978V26.9488L13.8298 30.4119V23.5609L19.9264 20.0978" fill="url(#paint3_linear_877_20170)"></path>
  <path d="M20.0013 20.0985L26.0979 23.5616L32.1945 20.0985L26.0979 16.6354L20.0013 13.1722L7.80811 20.0985L13.9047 23.5616" fill="url(#paint4_linear_877_20170)"></path>
  <path d="M13.8298 9.71362V16.6399L19.9264 20.103V13.1768L13.8298 9.71362Z" fill="white"></path>
  <path d="M26.0224 9.71362L19.9258 13.1768V20.103L26.0224 16.6399V9.71362Z" fill="white"></path>
  <path d="M26.023 9.70996L19.9264 6.24683L13.8298 9.70996L19.9264 13.1731L26.023 9.70996Z" fill="white"></path>
  <path opacity="0.87" d="M13.8298 9.71362V16.6399L19.9264 20.103V13.1768L13.8298 9.71362Z" fill="url(#paint5_linear_877_20170)"></path>
  <path opacity="0.87" d="M26.0224 9.71362L19.9258 13.1768V20.103L26.0224 16.6399V9.71362Z" fill="url(#paint6_linear_877_20170)"></path>
  <path opacity="0.87" d="M26.023 9.70996L19.9264 6.24683L13.8298 9.70996L19.9264 13.1731L26.023 9.70996Z" fill="url(#paint7_linear_877_20170)"></path>
  <defs>
    <linearGradient id="paint0_linear_877_20170" x1="25.9127" y1="25.3824" x2="29.5947" y2="25.1494" gradientUnits="userSpaceOnUse">
      <stop stop-color="#CE1621"></stop>
      <stop offset="1" stop-color="#DC4949"></stop>
    </linearGradient>
    <linearGradient id="paint1_linear_877_20170" x1="19.7619" y1="25.2194" x2="25.0464" y2="25.2194" gradientUnits="userSpaceOnUse">
      <stop stop-color="#DC4949"></stop>
      <stop offset="1" stop-color="#FF6975"></stop>
    </linearGradient>
    <linearGradient id="paint2_linear_877_20170" x1="7.41625" y1="25.203" x2="12.2494" y2="25.203" gradientUnits="userSpaceOnUse">
      <stop stop-color="#DC4949"></stop>
      <stop offset="1" stop-color="#FF6975"></stop>
    </linearGradient>
    <linearGradient id="paint3_linear_877_20170" x1="13.2864" y1="25.2369" x2="17.8893" y2="25.2369" gradientUnits="userSpaceOnUse">
      <stop stop-color="#CE1621"></stop>
      <stop offset="1" stop-color="#DC4949"></stop>
    </linearGradient>
    <linearGradient id="paint4_linear_877_20170" x1="23.7534" y1="16.8697" x2="13.3635" y2="25.902" gradientUnits="userSpaceOnUse">
      <stop stop-color="#CE1621"></stop>
      <stop offset="1" stop-color="#DC4949"></stop>
    </linearGradient>
    <linearGradient id="paint5_linear_877_20170" x1="15.465" y1="22.8682" x2="17.9334" y2="8.46257" gradientUnits="userSpaceOnUse">
      <stop offset="0.063058" stop-color="#FFD6D6"></stop>
      <stop offset="0.5649" stop-color="#FF8589"></stop>
      <stop offset="1" stop-color="#FF424F"></stop>
    </linearGradient>
    <linearGradient id="paint6_linear_877_20170" x1="19.6673" y1="16.0947" x2="28.5264" y2="12.7867" gradientUnits="userSpaceOnUse">
      <stop offset="0.063058" stop-color="#FFD6D6"></stop>
      <stop offset="0.5649" stop-color="#FF8589"></stop>
      <stop offset="1" stop-color="#FF424F"></stop>
    </linearGradient>
    <linearGradient id="paint7_linear_877_20170" x1="19.927" y1="7.42602" x2="19.927" y2="14.1965" gradientUnits="userSpaceOnUse">
      <stop offset="0.063058" stop-color="#FFD6D6"></stop>
      <stop offset="0.5649" stop-color="#FF8589"></stop>
      <stop offset="1" stop-color="#FF424F"></stop>
    </linearGradient>
  </defs>
</svg>
