<?xml version="1.0" encoding="UTF-8"?>
<svg xmlns="http://www.w3.org/2000/svg" width="40" height="40" viewBox="0 0 40 40" fill="none">
  <path d="M11.8878 20.5809L8.29346 22.61V26.668L11.8878 28.6971L15.482 26.668V22.61L11.8878 20.5809Z" fill="url(#paint0_linear_877_20104)"></path>
  <path d="M11.8878 11.3031L8.29346 13.3321V17.3902L11.8878 19.4192L15.482 17.3902V13.3321L11.8878 11.3031Z" fill="url(#paint1_linear_877_20104)"></path>
  <path d="M20.1036 6.66675L16.5093 8.69579V12.7539L20.1036 14.7829L23.6979 12.7539V8.69579L20.1036 6.66675Z" fill="url(#paint2_linear_877_20104)"></path>
  <path d="M28.3191 20.5809L24.7249 22.61V26.668L28.3191 28.6971L31.9134 26.668V22.61L28.3191 20.5809Z" fill="url(#paint3_linear_877_20104)"></path>
  <path d="M28.3191 11.3031L24.7249 13.3321V17.3902L28.3191 19.4192L31.9134 17.3902V13.3321L28.3191 11.3031Z" fill="url(#paint4_linear_877_20104)"></path>
  <path d="M20.1036 25.2173L16.5093 27.2463V31.3044L20.1036 33.3334L23.6979 31.3044V27.2463L20.1036 25.2173Z" fill="url(#paint5_linear_877_20104)"></path>
  <path d="M15.4825 26.668V22.61L11.8882 20.5809V24.639L15.4825 26.668Z" fill="url(#paint6_linear_877_20104)"></path>
  <path d="M15.4825 13.3322V17.3902L11.8882 19.4193V15.3612L15.4825 13.3322Z" fill="url(#paint7_linear_877_20104)"></path>
  <path d="M16.5093 12.7539L20.1036 14.7829L23.6979 12.7539L20.1036 10.7249L16.5093 12.7539Z" fill="url(#paint8_linear_877_20104)"></path>
  <path d="M24.7249 26.668L28.3192 24.639V20.5809L24.7249 22.61V26.668Z" fill="url(#paint9_linear_877_20104)"></path>
  <path d="M24.7249 13.3322L28.3192 15.3612V19.4193L24.7249 17.3902V13.3322Z" fill="url(#paint10_linear_877_20104)"></path>
  <path opacity="0.6" d="M28.4014 19.4193L31.9957 17.3902V13.3322L28.4014 15.3612V19.4193Z" fill="url(#paint11_linear_877_20104)"></path>
  <path d="M23.6979 27.2463L20.1036 25.2173L16.5093 27.2463L20.1036 29.2754L23.6979 27.2463Z" fill="url(#paint12_linear_877_20104)"></path>
  <path d="M13.9417 16.5228V23.4774L20.1033 26.9572V19.9976L13.9417 16.5228Z" fill="url(#paint13_linear_877_20104)"></path>
  <path d="M26.2647 16.5228L20.103 19.9976V26.9572L26.2647 23.4774V16.5228Z" fill="url(#paint14_linear_877_20104)"></path>
  <path d="M26.2649 16.5229L20.1033 13.0431L13.9417 16.5229L20.1033 19.9976L26.2649 16.5229Z" fill="url(#paint15_linear_877_20104)"></path>
  <defs>
    <linearGradient id="paint0_linear_877_20104" x1="8.57587" y1="26.526" x2="15.2203" y2="22.6414" gradientUnits="userSpaceOnUse">
      <stop stop-color="#009966" stop-opacity="0.8"></stop>
      <stop offset="0.1" stop-color="#0F9E67" stop-opacity="0.84"></stop>
      <stop offset="0.33" stop-color="#2CA86A" stop-opacity="0.91"></stop>
      <stop offset="0.56" stop-color="#40AF6C" stop-opacity="0.96"></stop>
      <stop offset="0.78" stop-color="#4DB46E" stop-opacity="0.99"></stop>
      <stop offset="1" stop-color="#51B56E"></stop>
    </linearGradient>
    <linearGradient id="paint1_linear_877_20104" x1="62.5673" y1="152.443" x2="161.496" y2="203.051" gradientUnits="userSpaceOnUse">
      <stop stop-color="#009966" stop-opacity="0.8"></stop>
      <stop offset="0.1" stop-color="#0F9E67" stop-opacity="0.84"></stop>
      <stop offset="0.33" stop-color="#2CA86A" stop-opacity="0.91"></stop>
      <stop offset="0.56" stop-color="#40AF6C" stop-opacity="0.96"></stop>
      <stop offset="0.78" stop-color="#4DB46E" stop-opacity="0.99"></stop>
      <stop offset="1" stop-color="#51B56E"></stop>
    </linearGradient>
    <linearGradient id="paint2_linear_877_20104" x1="20.1036" y1="14.4735" x2="20.1036" y2="6.90516" gradientUnits="userSpaceOnUse">
      <stop stop-color="#51B56E"></stop>
      <stop offset="0.22" stop-color="#4DB46E" stop-opacity="0.99"></stop>
      <stop offset="0.44" stop-color="#40AF6C" stop-opacity="0.96"></stop>
      <stop offset="0.67" stop-color="#2CA86A" stop-opacity="0.91"></stop>
      <stop offset="0.9" stop-color="#0F9E67" stop-opacity="0.84"></stop>
      <stop offset="1" stop-color="#009966" stop-opacity="0.8"></stop>
    </linearGradient>
    <linearGradient id="paint3_linear_877_20104" x1="309.033" y1="310.165" x2="407.962" y2="360.773" gradientUnits="userSpaceOnUse">
      <stop stop-color="#51B56E"></stop>
      <stop offset="0.22" stop-color="#4DB46E" stop-opacity="0.99"></stop>
      <stop offset="0.44" stop-color="#40AF6C" stop-opacity="0.96"></stop>
      <stop offset="0.67" stop-color="#2CA86A" stop-opacity="0.91"></stop>
      <stop offset="0.9" stop-color="#0F9E67" stop-opacity="0.84"></stop>
      <stop offset="1" stop-color="#009966" stop-opacity="0.8"></stop>
    </linearGradient>
    <linearGradient id="paint4_linear_877_20104" x1="309.033" y1="212.989" x2="407.962" y2="162.381" gradientUnits="userSpaceOnUse">
      <stop stop-color="#51B56E"></stop>
      <stop offset="0.22" stop-color="#4DB46E" stop-opacity="0.99"></stop>
      <stop offset="0.44" stop-color="#40AF6C" stop-opacity="0.96"></stop>
      <stop offset="0.67" stop-color="#2CA86A" stop-opacity="0.91"></stop>
      <stop offset="0.9" stop-color="#0F9E67" stop-opacity="0.84"></stop>
      <stop offset="1" stop-color="#009966" stop-opacity="0.8"></stop>
    </linearGradient>
    <linearGradient id="paint5_linear_877_20104" x1="16.5093" y1="359.197" x2="25.6615" y2="480.223" gradientUnits="userSpaceOnUse">
      <stop stop-color="#51B56E"></stop>
      <stop offset="0.22" stop-color="#4DB46E" stop-opacity="0.99"></stop>
      <stop offset="0.44" stop-color="#40AF6C" stop-opacity="0.96"></stop>
      <stop offset="0.67" stop-color="#2CA86A" stop-opacity="0.91"></stop>
      <stop offset="0.9" stop-color="#0F9E67" stop-opacity="0.84"></stop>
      <stop offset="1" stop-color="#009966" stop-opacity="0.8"></stop>
    </linearGradient>
    <linearGradient id="paint6_linear_877_20104" x1="15.5184" y1="22.5795" x2="11.9513" y2="24.6665" gradientUnits="userSpaceOnUse">
      <stop stop-color="#007352"></stop>
      <stop offset="1" stop-color="#0D5939"></stop>
    </linearGradient>
    <linearGradient id="paint7_linear_877_20104" x1="-111.607" y1="238.586" x2="-141.605" y2="228.373" gradientUnits="userSpaceOnUse">
      <stop stop-color="#007352"></stop>
      <stop offset="1" stop-color="#0D5939"></stop>
    </linearGradient>
    <linearGradient id="paint8_linear_877_20104" x1="232.167" y1="78.8599" x2="232.167" y2="111.365" gradientUnits="userSpaceOnUse">
      <stop stop-color="#007352"></stop>
      <stop offset="1" stop-color="#0D5939"></stop>
    </linearGradient>
    <linearGradient id="paint9_linear_877_20104" x1="100.457" y1="29.7725" x2="70.4364" y2="19.5272" gradientUnits="userSpaceOnUse">
      <stop stop-color="#007352"></stop>
      <stop offset="1" stop-color="#0D5939"></stop>
    </linearGradient>
    <linearGradient id="paint10_linear_877_20104" x1="-60.2495" y1="238.586" x2="-30.2508" y2="228.373" gradientUnits="userSpaceOnUse">
      <stop stop-color="#007352"></stop>
      <stop offset="1" stop-color="#0D5939"></stop>
    </linearGradient>
    <linearGradient id="paint11_linear_877_20104" x1="-38.1906" y1="-205.834" x2="-8.19197" y2="-195.622" gradientUnits="userSpaceOnUse">
      <stop stop-color="#007352"></stop>
      <stop offset="1" stop-color="#0D5939"></stop>
    </linearGradient>
    <linearGradient id="paint12_linear_877_20104" x1="232.167" y1="-20.4462" x2="232.167" y2="12.059" gradientUnits="userSpaceOnUse">
      <stop stop-color="#007352"></stop>
      <stop offset="1" stop-color="#0D5939"></stop>
    </linearGradient>
    <linearGradient id="paint13_linear_877_20104" x1="13.9571" y1="16.4924" x2="19.9616" y2="27.0154" gradientUnits="userSpaceOnUse">
      <stop stop-color="#72D477" stop-opacity="0.7"></stop>
      <stop offset="1" stop-color="white" stop-opacity="0.9"></stop>
    </linearGradient>
    <linearGradient id="paint14_linear_877_20104" x1="26.3109" y1="16.3909" x2="20.2963" y2="26.9293" gradientUnits="userSpaceOnUse">
      <stop stop-color="#72D477" stop-opacity="0.9"></stop>
      <stop offset="0.22" stop-color="#7AD67E" stop-opacity="0.89"></stop>
      <stop offset="0.46" stop-color="#91DD95" stop-opacity="0.86"></stop>
      <stop offset="0.69" stop-color="#B7E9BA" stop-opacity="0.8"></stop>
      <stop offset="0.93" stop-color="#EDF9EE" stop-opacity="0.73"></stop>
      <stop offset="1" stop-color="white" stop-opacity="0.7"></stop>
    </linearGradient>
    <linearGradient id="paint15_linear_877_20104" x1="20.1033" y1="13.0431" x2="20.1033" y2="20.0737" gradientUnits="userSpaceOnUse">
      <stop stop-color="#72D477"></stop>
      <stop offset="0.19" stop-color="#87DA8B"></stop>
      <stop offset="0.57" stop-color="#BDEBBF"></stop>
      <stop offset="1" stop-color="white"></stop>
    </linearGradient>
  </defs>
</svg>
