<?xml version="1.0" encoding="UTF-8"?>
<svg xmlns="http://www.w3.org/2000/svg" xmlns:xlink="http://www.w3.org/1999/xlink" width="24px" height="24px" viewBox="0 0 24 24" version="1.1">
<g id="surface1">
<path style=" stroke:none;fill-rule:evenodd;fill:rgb(100%,100%,100%);fill-opacity:1;" d="M 20.441406 6.234375 L 12.761719 1.691406 C 12.550781 1.566406 12.3125 1.5 12.066406 1.5 C 11.824219 1.5 11.582031 1.566406 11.371094 1.691406 L 9.800781 2.609375 L 18.863281 7.988281 L 18.863281 16.023438 L 16.597656 17.363281 L 9.800781 13.347656 L 9.800781 12.058594 C 10.050781 11.820312 10.226562 11.507812 10.300781 11.164062 C 10.375 10.824219 10.34375 10.46875 10.21875 10.140625 C 10.089844 9.816406 9.867188 9.539062 9.585938 9.347656 C 9.300781 9.152344 8.964844 9.050781 8.621094 9.058594 C 8.28125 9.0625 7.945312 9.175781 7.667969 9.375 C 7.390625 9.578125 7.175781 9.863281 7.058594 10.195312 C 6.941406 10.523438 6.925781 10.878906 7.007812 11.21875 C 7.09375 11.558594 7.277344 11.863281 7.535156 12.09375 L 7.535156 14.6875 L 16.601562 20.046875 L 20.441406 17.773438 C 20.652344 17.648438 20.828125 17.472656 20.949219 17.253906 C 21.070312 17.039062 21.136719 16.792969 21.136719 16.542969 L 21.136719 7.46875 C 21.136719 7.21875 21.070312 6.972656 20.949219 6.757812 C 20.828125 6.539062 20.652344 6.359375 20.441406 6.234375 Z M 20.441406 6.234375 "/>
<path style=" stroke:none;fill-rule:evenodd;fill:rgb(100%,100%,100%);fill-opacity:1;" d="M 16.597656 11.882812 L 16.597656 9.324219 L 7.53125 3.964844 L 3.695312 6.234375 C 3.484375 6.359375 3.308594 6.539062 3.1875 6.753906 C 3.0625 6.972656 3 7.21875 3 7.46875 L 3 16.542969 C 3 16.792969 3.0625 17.039062 3.1875 17.253906 C 3.308594 17.472656 3.484375 17.648438 3.695312 17.773438 L 11.371094 22.308594 C 11.582031 22.433594 11.820312 22.5 12.066406 22.5 C 12.308594 22.5 12.550781 22.433594 12.761719 22.308594 L 14.328125 21.390625 L 5.265625 16.023438 L 5.265625 7.988281 L 7.53125 6.648438 L 14.328125 10.664062 L 14.328125 11.90625 C 14.074219 12.144531 13.898438 12.453125 13.824219 12.796875 C 13.75 13.136719 13.773438 13.492188 13.902344 13.816406 C 14.027344 14.144531 14.246094 14.421875 14.53125 14.617188 C 14.8125 14.8125 15.148438 14.914062 15.488281 14.910156 C 15.832031 14.90625 16.164062 14.796875 16.441406 14.597656 C 16.722656 14.394531 16.9375 14.113281 17.054688 13.785156 C 17.175781 13.457031 17.195312 13.101562 17.113281 12.761719 C 17.027344 12.421875 16.847656 12.117188 16.589844 11.882812 Z M 16.597656 11.882812 "/>
</g>
</svg>
