<svg width="16" height="16" viewBox="0 0 16 16" fill="none" xmlns="http://www.w3.org/2000/svg">
<path fill-rule="evenodd" clip-rule="evenodd" d="M13.6271 4.15732L8.50798 1.1271C8.36714 1.04384 8.20737 1 8.04474 1C7.8821 1 7.72234 1.04384 7.58149 1.1271L6.53394 1.74075L12.5759 5.32448V10.6829L11.0657 11.5764L6.53394 8.89716V8.03805C6.70087 7.87897 6.81679 7.6718 6.86639 7.44388C6.916 7.21597 6.89697 6.97801 6.81182 6.76139C6.72666 6.54477 6.57938 6.35968 6.3894 6.23052C6.19942 6.10136 5.97566 6.0342 5.74765 6.03791C5.51964 6.04161 5.29808 6.11601 5.1122 6.25127C4.92632 6.38654 4.78485 6.57633 4.70645 6.79561C4.62805 7.01488 4.6164 7.25334 4.67305 7.47953C4.7297 7.70572 4.85197 7.90902 5.02375 8.0626V9.79064L11.0669 13.3633L13.6271 11.8501C13.7679 11.7669 13.885 11.6473 13.9664 11.5031C14.0478 11.359 14.0908 11.1955 14.0909 11.029V4.97838C14.0908 4.81188 14.0478 4.64835 13.9664 4.50423C13.885 4.3601 13.7679 4.24046 13.6271 4.15732Z" fill="white"/>
<path fill-rule="evenodd" clip-rule="evenodd" d="M11.066 7.92267V6.21672L5.02159 2.64404L2.46265 4.15608C2.3219 4.23958 2.20506 4.3595 2.12386 4.50383C2.04266 4.64816 1.99994 4.81181 2 4.97837V11.029C1.99991 11.1954 2.04262 11.3589 2.12384 11.503C2.20505 11.6472 2.32191 11.7668 2.46265 11.85L7.58053 14.8729C7.72137 14.9562 7.88114 15 8.04377 15C8.20641 15 8.36617 14.9562 8.50702 14.8729L9.55097 14.2592L3.51139 10.6829V5.32447L5.02159 4.431L9.55097 7.1102V7.93863C9.38356 8.09669 9.26685 8.30299 9.21623 8.53032C9.16561 8.75766 9.18345 8.99537 9.26741 9.21212C9.35136 9.42887 9.49748 9.61448 9.68652 9.74448C9.87555 9.87449 10.0986 9.94279 10.3263 9.94039C10.554 9.93798 10.7757 9.86498 10.962 9.73101C11.1484 9.59703 11.2908 9.40838 11.3703 9.1899C11.4499 8.97143 11.4629 8.73339 11.4078 8.50717C11.3526 8.28095 11.2317 8.07716 11.0612 7.92267H11.066Z" fill="white"/>
</svg>
